<svg xmlns="http://www.w3.org/2000/svg" width="1000" height="40" viewBox="0 0 1000 40">
<defs><linearGradient id="n" x1="0" y1="0" x2="1" y2="0"><stop offset="0" stop-color="#7b2cbf" stop-opacity=".2"/><stop offset=".5" stop-color="#c77dff"/><stop offset=".8" stop-color="#ff6ec7"/><stop offset="1" stop-color="#7b2cbf" stop-opacity=".2"/></linearGradient></defs>
<style>.w{fill:url(#n);animation:w 1.2s ease-in-out infinite alternate;transform-box:fill-box;transform-origin:center}@keyframes w{0%{transform:scaleY(.25)}100%{transform:scaleY(1)}}</style>
<rect class="w" x="3" y="14.8" width="4" height="10.4" rx="2" style="animation-delay:-0.07s;animation-duration:1.67s"/><rect class="w" x="13" y="16.8" width="4" height="6.4" rx="2" style="animation-delay:-0.23s;animation-duration:1.01s"/><rect class="w" x="23" y="16.6" width="4" height="6.9" rx="2" style="animation-delay:-1.31s;animation-duration:1.06s"/><rect class="w" x="33" y="15.4" width="4" height="9.3" rx="2" style="animation-delay:-1.02s;animation-duration:1.24s"/><rect class="w" x="43" y="15.3" width="4" height="9.4" rx="2" style="animation-delay:-0.10s;animation-duration:0.95s"/><rect class="w" x="53" y="16.4" width="4" height="7.1" rx="2" style="animation-delay:-1.09s;animation-duration:1.28s"/><rect class="w" x="63" y="15.8" width="4" height="8.4" rx="2" style="animation-delay:-0.94s;animation-duration:1.31s"/><rect class="w" x="73" y="15.7" width="4" height="8.6" rx="2" style="animation-delay:-1.27s;animation-duration:1.53s"/><rect class="w" x="83" y="15.8" width="4" height="8.4" rx="2" style="animation-delay:-0.92s;animation-duration:1.37s"/><rect class="w" x="93" y="12.6" width="4" height="14.8" rx="2" style="animation-delay:-1.17s;animation-duration:1.16s"/><rect class="w" x="103" y="11.8" width="4" height="16.4" rx="2" style="animation-delay:-0.19s;animation-duration:1.28s"/><rect class="w" x="113" y="12.7" width="4" height="14.7" rx="2" style="animation-delay:-0.24s;animation-duration:1.34s"/><rect class="w" x="123" y="16.2" width="4" height="7.5" rx="2" style="animation-delay:-1.07s;animation-duration:1.59s"/><rect class="w" x="133" y="13.2" width="4" height="13.6" rx="2" style="animation-delay:-1.40s;animation-duration:1.18s"/><rect class="w" x="143" y="12.3" width="4" height="15.4" rx="2" style="animation-delay:-0.95s;animation-duration:1.42s"/><rect class="w" x="153" y="13.5" width="4" height="13.1" rx="2" style="animation-delay:-1.34s;animation-duration:1.75s"/><rect class="w" x="163" y="13.2" width="4" height="13.7" rx="2" style="animation-delay:-1.06s;animation-duration:0.95s"/><rect class="w" x="173" y="11.6" width="4" height="16.8" rx="2" style="animation-delay:-1.04s;animation-duration:1.79s"/><rect class="w" x="183" y="10.6" width="4" height="18.8" rx="2" style="animation-delay:-0.46s;animation-duration:1.25s"/><rect class="w" x="193" y="11.4" width="4" height="17.3" rx="2" style="animation-delay:-0.04s;animation-duration:1.32s"/><rect class="w" x="203" y="14.5" width="4" height="11.0" rx="2" style="animation-delay:-0.19s;animation-duration:0.95s"/><rect class="w" x="213" y="10.3" width="4" height="19.4" rx="2" style="animation-delay:-0.21s;animation-duration:1.12s"/><rect class="w" x="223" y="12.7" width="4" height="14.6" rx="2" style="animation-delay:-1.39s;animation-duration:0.97s"/><rect class="w" x="233" y="12.1" width="4" height="15.7" rx="2" style="animation-delay:-0.88s;animation-duration:1.70s"/><rect class="w" x="243" y="9.3" width="4" height="21.4" rx="2" style="animation-delay:-1.38s;animation-duration:1.15s"/><rect class="w" x="253" y="12.1" width="4" height="15.8" rx="2" style="animation-delay:-0.57s;animation-duration:1.70s"/><rect class="w" x="263" y="7.9" width="4" height="24.2" rx="2" style="animation-delay:-0.24s;animation-duration:1.06s"/><rect class="w" x="273" y="13.2" width="4" height="13.6" rx="2" style="animation-delay:-0.37s;animation-duration:1.34s"/><rect class="w" x="283" y="10.3" width="4" height="19.3" rx="2" style="animation-delay:-0.42s;animation-duration:0.90s"/><rect class="w" x="293" y="11.5" width="4" height="16.9" rx="2" style="animation-delay:-0.59s;animation-duration:1.41s"/><rect class="w" x="303" y="7.2" width="4" height="25.6" rx="2" style="animation-delay:-1.10s;animation-duration:1.36s"/><rect class="w" x="313" y="9.7" width="4" height="20.6" rx="2" style="animation-delay:-1.08s;animation-duration:0.95s"/><rect class="w" x="323" y="7.3" width="4" height="25.4" rx="2" style="animation-delay:-1.25s;animation-duration:1.69s"/><rect class="w" x="333" y="8.0" width="4" height="24.1" rx="2" style="animation-delay:-0.63s;animation-duration:1.26s"/><rect class="w" x="343" y="13.6" width="4" height="12.8" rx="2" style="animation-delay:-1.01s;animation-duration:0.96s"/><rect class="w" x="353" y="13.8" width="4" height="12.3" rx="2" style="animation-delay:-0.33s;animation-duration:1.05s"/><rect class="w" x="363" y="11.5" width="4" height="17.1" rx="2" style="animation-delay:-0.08s;animation-duration:0.90s"/><rect class="w" x="373" y="13.0" width="4" height="14.0" rx="2" style="animation-delay:-0.16s;animation-duration:1.23s"/><rect class="w" x="383" y="14.0" width="4" height="11.9" rx="2" style="animation-delay:-1.40s;animation-duration:1.45s"/><rect class="w" x="393" y="12.9" width="4" height="14.1" rx="2" style="animation-delay:-0.40s;animation-duration:1.21s"/><rect class="w" x="403" y="11.0" width="4" height="18.0" rx="2" style="animation-delay:-0.20s;animation-duration:1.66s"/><rect class="w" x="413" y="5.4" width="4" height="29.2" rx="2" style="animation-delay:-0.75s;animation-duration:1.34s"/><rect class="w" x="423" y="13.4" width="4" height="13.3" rx="2" style="animation-delay:-0.16s;animation-duration:1.21s"/><rect class="w" x="433" y="11.7" width="4" height="16.5" rx="2" style="animation-delay:-1.33s;animation-duration:1.05s"/><rect class="w" x="443" y="13.9" width="4" height="12.3" rx="2" style="animation-delay:-1.52s;animation-duration:1.38s"/><rect class="w" x="453" y="12.7" width="4" height="14.5" rx="2" style="animation-delay:-0.87s;animation-duration:0.92s"/><rect class="w" x="463" y="9.3" width="4" height="21.4" rx="2" style="animation-delay:-1.57s;animation-duration:1.68s"/><rect class="w" x="473" y="7.8" width="4" height="24.5" rx="2" style="animation-delay:-0.42s;animation-duration:1.23s"/><rect class="w" x="483" y="12.5" width="4" height="15.0" rx="2" style="animation-delay:-1.24s;animation-duration:1.38s"/><rect class="w" x="493" y="7.0" width="4" height="26.0" rx="2" style="animation-delay:-0.53s;animation-duration:1.10s"/><rect class="w" x="503" y="6.7" width="4" height="26.6" rx="2" style="animation-delay:-1.58s;animation-duration:1.67s"/><rect class="w" x="513" y="6.8" width="4" height="26.5" rx="2" style="animation-delay:-1.31s;animation-duration:1.57s"/><rect class="w" x="523" y="12.0" width="4" height="16.0" rx="2" style="animation-delay:-0.83s;animation-duration:1.22s"/><rect class="w" x="533" y="13.8" width="4" height="12.5" rx="2" style="animation-delay:-0.04s;animation-duration:1.15s"/><rect class="w" x="543" y="11.7" width="4" height="16.6" rx="2" style="animation-delay:-1.11s;animation-duration:1.76s"/><rect class="w" x="553" y="10.1" width="4" height="19.9" rx="2" style="animation-delay:-1.50s;animation-duration:1.79s"/><rect class="w" x="563" y="5.6" width="4" height="28.8" rx="2" style="animation-delay:-0.58s;animation-duration:1.10s"/><rect class="w" x="573" y="12.1" width="4" height="15.8" rx="2" style="animation-delay:-0.31s;animation-duration:1.08s"/><rect class="w" x="583" y="8.7" width="4" height="22.7" rx="2" style="animation-delay:-1.44s;animation-duration:1.66s"/><rect class="w" x="593" y="10.0" width="4" height="20.0" rx="2" style="animation-delay:-1.04s;animation-duration:1.62s"/><rect class="w" x="603" y="13.5" width="4" height="13.0" rx="2" style="animation-delay:-1.06s;animation-duration:1.72s"/><rect class="w" x="613" y="7.5" width="4" height="25.0" rx="2" style="animation-delay:-1.20s;animation-duration:1.33s"/><rect class="w" x="623" y="12.8" width="4" height="14.4" rx="2" style="animation-delay:-1.26s;animation-duration:1.20s"/><rect class="w" x="633" y="7.6" width="4" height="24.9" rx="2" style="animation-delay:-1.55s;animation-duration:1.26s"/><rect class="w" x="643" y="11.0" width="4" height="17.9" rx="2" style="animation-delay:-1.51s;animation-duration:1.55s"/><rect class="w" x="653" y="13.1" width="4" height="13.9" rx="2" style="animation-delay:-0.20s;animation-duration:1.04s"/><rect class="w" x="663" y="7.1" width="4" height="25.8" rx="2" style="animation-delay:-1.29s;animation-duration:1.03s"/><rect class="w" x="673" y="7.9" width="4" height="24.3" rx="2" style="animation-delay:-1.57s;animation-duration:1.49s"/><rect class="w" x="683" y="11.8" width="4" height="16.3" rx="2" style="animation-delay:-0.88s;animation-duration:1.02s"/><rect class="w" x="693" y="14.6" width="4" height="10.8" rx="2" style="animation-delay:-1.55s;animation-duration:1.48s"/><rect class="w" x="703" y="10.7" width="4" height="18.6" rx="2" style="animation-delay:-1.49s;animation-duration:1.29s"/><rect class="w" x="713" y="8.2" width="4" height="23.7" rx="2" style="animation-delay:-1.32s;animation-duration:1.09s"/><rect class="w" x="723" y="13.0" width="4" height="13.9" rx="2" style="animation-delay:-0.47s;animation-duration:1.12s"/><rect class="w" x="733" y="10.7" width="4" height="18.7" rx="2" style="animation-delay:-0.41s;animation-duration:1.28s"/><rect class="w" x="743" y="14.2" width="4" height="11.7" rx="2" style="animation-delay:-1.46s;animation-duration:1.22s"/><rect class="w" x="753" y="11.9" width="4" height="16.2" rx="2" style="animation-delay:-0.93s;animation-duration:1.71s"/><rect class="w" x="763" y="12.3" width="4" height="15.3" rx="2" style="animation-delay:-1.47s;animation-duration:1.35s"/><rect class="w" x="773" y="11.7" width="4" height="16.6" rx="2" style="animation-delay:-0.84s;animation-duration:0.92s"/><rect class="w" x="783" y="12.5" width="4" height="15.0" rx="2" style="animation-delay:-0.29s;animation-duration:0.90s"/><rect class="w" x="793" y="10.3" width="4" height="19.4" rx="2" style="animation-delay:-0.28s;animation-duration:1.33s"/><rect class="w" x="803" y="11.0" width="4" height="18.0" rx="2" style="animation-delay:-0.89s;animation-duration:1.19s"/><rect class="w" x="813" y="12.5" width="4" height="15.0" rx="2" style="animation-delay:-0.89s;animation-duration:1.61s"/><rect class="w" x="823" y="15.2" width="4" height="9.5" rx="2" style="animation-delay:-0.90s;animation-duration:1.12s"/><rect class="w" x="833" y="14.3" width="4" height="11.3" rx="2" style="animation-delay:-1.24s;animation-duration:1.36s"/><rect class="w" x="843" y="12.8" width="4" height="14.3" rx="2" style="animation-delay:-1.22s;animation-duration:1.72s"/><rect class="w" x="853" y="13.7" width="4" height="12.6" rx="2" style="animation-delay:-0.98s;animation-duration:1.35s"/><rect class="w" x="863" y="13.5" width="4" height="13.0" rx="2" style="animation-delay:-1.11s;animation-duration:1.31s"/><rect class="w" x="873" y="13.6" width="4" height="12.8" rx="2" style="animation-delay:-0.76s;animation-duration:1.75s"/><rect class="w" x="883" y="13.0" width="4" height="14.1" rx="2" style="animation-delay:-1.40s;animation-duration:1.75s"/><rect class="w" x="893" y="15.4" width="4" height="9.2" rx="2" style="animation-delay:-0.90s;animation-duration:1.75s"/><rect class="w" x="903" y="12.8" width="4" height="14.5" rx="2" style="animation-delay:-0.22s;animation-duration:1.01s"/><rect class="w" x="913" y="14.9" width="4" height="10.2" rx="2" style="animation-delay:-0.12s;animation-duration:1.12s"/><rect class="w" x="923" y="16.7" width="4" height="6.6" rx="2" style="animation-delay:-1.07s;animation-duration:1.61s"/><rect class="w" x="933" y="13.3" width="4" height="13.3" rx="2" style="animation-delay:-0.25s;animation-duration:1.54s"/><rect class="w" x="943" y="14.6" width="4" height="10.8" rx="2" style="animation-delay:-0.23s;animation-duration:1.69s"/><rect class="w" x="953" y="13.6" width="4" height="12.7" rx="2" style="animation-delay:-0.35s;animation-duration:1.76s"/><rect class="w" x="963" y="16.1" width="4" height="7.9" rx="2" style="animation-delay:-0.78s;animation-duration:1.79s"/><rect class="w" x="973" y="14.7" width="4" height="10.6" rx="2" style="animation-delay:-0.26s;animation-duration:1.29s"/><rect class="w" x="983" y="16.1" width="4" height="7.9" rx="2" style="animation-delay:-0.54s;animation-duration:1.08s"/><rect class="w" x="993" y="16.9" width="4" height="6.2" rx="2" style="animation-delay:-1.16s;animation-duration:0.92s"/></svg>